<svg xmlns="http://www.w3.org/2000/svg" xmlns:xlink="http://www.w3.org/1999/xlink" version="1.1" x="0px" y="0px" viewBox="0 0 24 30" style="enable-background:new 0 0 24 24;" xml:space="preserve"><path d="M15.5,13.9c0.7-1,1.1-2.2,1.1-3.5c0-3.5-2.8-6.3-6.3-6.3S4,6.8,4,10.3c0,3.5,2.8,6.3,6.3,6.3c1.3,0,2.5-0.4,3.5-1.1l4.5,4.5  l1.7-1.7L15.5,13.9z M5.9,10.3c0-2.4,2-4.4,4.4-4.4s4.4,2,4.4,4.4s-2,4.4-4.4,4.4S5.9,12.8,5.9,10.3z"/><text x="0" y="39" fill="#000000" font-size="5px" font-weight="bold" font-family="'Helvetica Neue', Helvetica, Arial-Unicode, Arial, Sans-serif">Created by Max Burnside</text><text x="0" y="44" fill="#000000" font-size="5px" font-weight="bold" font-family="'Helvetica Neue', Helvetica, Arial-Unicode, Arial, Sans-serif">from the Noun Project</text></svg>